<svg width="1598" height="1238" viewBox="0 0 1598 1238" fill="none" xmlns="http://www.w3.org/2000/svg">
<g clip-path="url(#clip0_1_10)">
<path fill-rule="evenodd" clip-rule="evenodd" d="M0 0H1598V1238H0V0Z" fill="white"/>
<path fill-rule="evenodd" clip-rule="evenodd" d="M1419.44 579.571C1419.44 568.602 1407.81 559.462 1393.5 559.462C1379.18 559.462 1367.54 568.602 1367.54 579.571C1367.53 582.22 1368.19 584.845 1369.49 587.295C1370.79 589.746 1372.69 591.974 1375.11 593.852C1377.52 595.731 1380.38 597.223 1383.54 598.242C1386.69 599.262 1390.08 599.79 1393.5 599.796C1400.39 599.762 1406.99 597.617 1411.85 593.827C1416.71 590.038 1419.44 584.913 1419.44 579.571Z" fill="black"/>
<path fill-rule="evenodd" clip-rule="evenodd" d="M1368.32 612.712L1160.69 667.786C1180.51 652.924 1188.38 635.005 1188.38 614.048L1186.97 286.982C1186.97 273.09 1180.99 258.344 1158.97 251.523L1345.35 199.127C1441.92 172.075 1529.54 221.915 1527.5 320.74C1526.24 384.349 1522.62 458.197 1427.15 484.883L1335.45 510.47L1335.14 578.223C1335.14 592.609 1338.75 612.224 1368.32 612.712ZM502.896 963.42L198.693 1046.16C217.412 1024.96 223.547 1004.49 232.352 982.553L457.283 429.076L133.73 515.718C110.136 522.057 89.85 531.318 70.5005 546.79L177.453 352.673L697.776 212.538C758.651 196.089 784.915 222.775 768.716 265.306L669.788 524.979C706.416 525.061 742.491 531.911 775.016 544.96L773.126 400.56C772.969 385.088 770.921 372.898 746.539 359.006L925.849 311.973L927.748 610.888C927.897 649.154 986.41 640.008 986.41 601.261V347.914C986.41 331.954 981.212 317.451 957.941 305.145L1141.02 255.306L1140.39 588.589C1140.23 674.254 1046.8 697.645 972.093 717.029C948.234 723.099 923.692 727.421 898.79 729.938C883.072 817.434 785.852 885.07 668.677 885.07C622.749 885.07 579.805 874.582 543.626 856.56L502.896 963.42Z" fill="black"/>
<path fill-rule="evenodd" clip-rule="evenodd" d="M668.685 548.37C780.048 548.37 870.802 618.801 870.802 704.954C870.802 791.236 780.04 861.544 668.685 861.544C557.322 861.544 466.56 791.236 466.56 704.954C466.56 618.807 557.322 548.37 668.685 548.37ZM1335.14 430.297L1334.04 265.544C1382.16 251.651 1386.56 312.827 1386.72 341.581C1387.04 374.118 1391.9 421.761 1335.14 430.297ZM1416.45 579.572C1416.46 581.91 1415.87 584.226 1414.72 586.388C1413.57 588.549 1411.88 590.513 1409.74 592.167C1407.61 593.82 1405.08 595.13 1402.29 596.022C1399.5 596.913 1396.51 597.369 1393.49 597.362C1380.89 597.484 1370.51 589.443 1370.51 579.694C1370.52 574.976 1372.94 570.452 1377.25 567.117C1381.56 563.781 1387.4 561.906 1393.49 561.903C1396.49 561.892 1399.47 562.34 1402.26 563.223C1405.04 564.106 1407.57 565.405 1409.7 567.046C1411.83 568.687 1413.53 570.638 1414.69 572.788C1415.85 574.937 1416.44 577.242 1416.45 579.572Z" fill="white"/>
<path fill-rule="evenodd" clip-rule="evenodd" d="M1383.9 590.169H1387.51V580.67H1396.95C1402.93 580.67 1401.21 584.69 1401.83 587.369L1402.46 590.175H1406.86C1405.29 588.229 1405.76 587.735 1405.45 584.812C1404.98 580.92 1404.98 580.67 1401.98 579.212C1404.82 577.497 1405.92 576.527 1405.76 573.605C1405.45 568.608 1401.05 567.998 1396.64 567.998H1383.9V590.169Z" fill="black"/>
<path fill-rule="evenodd" clip-rule="evenodd" d="M1396.8 570.426C1399 570.426 1402.45 570.914 1401.98 574.697C1401.67 577.619 1399.14 578.107 1396.8 578.107H1387.5V570.432L1396.8 570.426Z" fill="white"/>
</g>
<defs>
<clipPath id="clip0_1_10">
<rect width="1598" height="1238" fill="white"/>
</clipPath>
</defs>
</svg>
