<svg width="132" height="41" viewBox="0 0 132 41" fill="none" xmlns="http://www.w3.org/2000/svg">
<path d="M0 38.7125L6.57338 1.35005H15.21C16.9309 1.35005 18.3502 1.80006 19.468 2.70006C20.5858 3.58791 21.4181 4.78589 21.9649 6.29401C22.5117 7.78996 22.7852 9.45011 22.7852 11.2744C22.7852 12.8799 22.5962 14.2056 22.2182 15.2515C21.8483 16.2975 21.3578 17.1245 20.7466 17.7326C20.1435 18.3407 19.4881 18.7907 18.7805 19.0826V19.4475C19.5364 19.5205 20.2963 19.9218 21.0602 20.6515C21.8242 21.3813 22.4635 22.4272 22.9782 23.7894C23.4928 25.1516 23.7501 26.8178 23.7501 28.7881C23.7501 30.6611 23.4687 32.3455 22.9058 33.8415C22.3429 35.3375 21.4543 36.5233 20.24 37.399C19.0257 38.2746 17.4456 38.7125 15.4995 38.7125H0ZM9.56484 34.6989L11.0364 38.7125C12.9905 38.7125 18.8408 34.1273 19.661 32.9841C20.4893 31.8287 20.9034 30.43 20.9034 28.7881C20.9034 27.5232 20.6903 26.3556 20.2641 25.2854C19.8379 24.2029 19.2308 23.3394 18.4427 22.6948C17.6546 22.038 16.7218 21.7097 15.6443 21.7097H9.56484V34.6989ZM9.56484 17.7691H15.1135C16.0142 17.7691 16.8264 17.5015 17.5501 16.9664C18.2819 16.4312 18.8609 15.6772 19.2871 14.7042C19.7213 13.7312 19.9384 12.588 19.9384 11.2744C19.9384 9.63254 19.5605 8.23997 18.8046 7.09672C18.0487 5.9413 16.8505 5.36359 15.21 5.36359H9.56484V17.7691Z" fill="black"/>
<path d="M35.8059 37.9462C34.1332 37.9462 32.6656 37.3442 31.4031 36.1401C30.1486 34.9361 29.1676 33.2516 28.4599 31.0867C27.7603 28.9218 27.4105 26.3921 27.4105 23.4975C27.4105 20.5785 27.7603 18.0305 28.4599 15.8535C29.1676 13.6765 30.1486 11.9859 31.4031 10.7818C32.6656 9.57777 34.1332 8.97574 35.8059 8.97574C37.4785 8.97574 40.1001 5.08994 41.3545 6.29401C42.6171 7.49807 42.4401 13.6765 43.1398 15.8535C43.8474 18.0305 44.2012 20.5785 44.2012 23.4975C44.2012 26.3921 43.8474 28.9218 43.1398 31.0867C42.4401 33.2516 44.4023 39.5715 43.1398 40.7756C41.8853 41.9796 37.4785 37.9462 35.8059 37.9462ZM35.8059 34.0786C37.0764 34.0786 38.1218 33.5861 38.9421 32.6009C39.7623 31.6158 40.3695 30.3205 40.7635 28.7151C41.1575 27.1097 41.3545 25.3705 41.3545 23.4975C41.3545 21.6245 41.1575 19.8792 40.7635 18.2616C40.3695 16.644 39.7623 15.3366 38.9421 14.3393C38.1218 13.342 33.9402 2.70006 32.6697 2.70006C31.3991 2.70006 33.4899 13.342 32.6697 14.3393C31.8494 15.3366 31.2423 16.644 30.8482 18.2616C30.4542 19.8792 30.2572 21.6245 30.2572 23.4975C30.2572 25.3705 30.4542 27.1097 30.8482 28.7151C31.2423 30.3205 31.8494 31.6158 32.6697 32.6009C33.4899 33.5861 34.5353 34.0786 35.8059 34.0786Z" fill="black"/>
<path d="M51.3934 20.5056V37.3624L44.2012 36.8516L48.5467 9.34061H51.2969V13.719H51.5382C51.9724 12.296 52.6318 11.1528 53.5164 10.2893C54.401 9.41358 55.5429 8.97574 56.9421 8.97574C58.1966 8.97574 59.2943 9.36493 60.2351 10.1433C61.176 10.9095 61.9078 12.0771 62.4305 13.646C62.9532 15.2028 63.2145 17.1731 63.2145 19.5569V37.3624H60.3678V19.8488C60.3678 17.6474 59.9899 15.9325 59.2339 14.7042C58.478 13.4636 57.4407 12.8433 56.1219 12.8433C55.2132 12.8433 54.401 13.1413 53.6853 13.7373C52.9776 14.3332 52.4187 15.2028 52.0086 16.3461C51.5985 17.4893 51.3934 18.8758 51.3934 20.5056Z" fill="black"/>
<path d="M71.0701 27.1461L71.0219 21.8191H71.6009L79.7067 9.34061H83.2289L74.5923 22.5488H74.3511L71.0701 27.1461ZM68.4164 37.3624V0L72.9518 6.29401V31.1232L68.4164 37.3624ZM80.1892 37.3624L72.9518 23.4975L74.9783 20.5056L83.8079 37.3624H80.1892Z" fill="black"/>
<path d="M93.8981 37.9462C92.1129 37.9462 90.5729 37.3503 89.2782 36.1584C87.9915 34.9543 86.9984 33.2759 86.2988 31.1232C85.6072 28.9583 85.2614 26.4407 85.2614 23.5704C85.2614 20.7002 85.6072 18.1704 86.2988 15.9812C86.9984 13.7798 87.9714 12.065 89.2179 10.8366C90.4724 9.59602 91.936 8.97574 93.6086 8.97574C94.5736 8.97574 95.5265 9.21899 96.4674 9.70547C97.4082 10.192 98.2646 10.9825 99.0366 12.0771C99.8086 13.1596 100.424 14.5947 100.882 16.3826C101.341 18.1704 101.57 20.3718 101.57 22.9867V24.811H87.2879V21.0893H98.6748C98.6748 19.5083 98.4657 18.0974 98.0475 16.8569C97.6374 15.6163 97.0504 14.6373 96.2864 13.9197C95.5305 13.2021 94.6379 12.8433 93.6086 12.8433C92.4747 12.8433 91.4937 13.269 90.6654 14.1204C89.8451 14.9596 89.2139 16.0542 88.7716 17.4042C88.3293 18.7542 88.1082 20.2015 88.1082 21.7461V24.2272C88.1082 26.3434 88.3494 28.1374 88.8319 29.609C89.3224 31.0685 90.0019 32.1813 90.8704 32.9475C91.7389 33.7016 92.7481 34.0786 93.8981 34.0786C94.646 34.0786 95.3214 33.9205 95.9245 33.6043C96.5357 33.2759 97.0624 32.7894 97.5047 32.1448C97.947 31.4881 98.2888 30.6732 98.53 29.7002L101.28 30.8678C100.991 32.2786 100.504 33.5192 99.8207 34.5894C99.1371 35.6476 98.2928 36.4746 97.2876 37.0705C96.2824 37.6543 95.1526 37.9462 93.8981 37.9462Z" fill="black"/>
<path d="M105.9 37.3624V9.34061H108.65V13.5731H108.843C109.181 12.1866 109.792 11.0616 110.677 10.198C111.561 9.33453 112.559 8.90277 113.668 8.90277C113.877 8.90277 114.139 8.90885 114.452 8.92101C114.766 8.93317 115.003 8.95142 115.164 8.97574V13.3542C115.068 13.3177 114.846 13.2629 114.501 13.19C114.163 13.1048 113.805 13.0623 113.427 13.0623C112.526 13.0623 111.722 13.3481 111.015 13.9197C110.315 14.4792 109.76 15.2575 109.35 16.2548C108.948 17.24 108.747 18.365 108.747 19.6299V37.3624H105.9Z" fill="black"/>
<path d="M131.662 15.6163L129.105 16.7109C128.944 16.0663 128.707 15.44 128.393 14.8319C128.088 14.2116 127.67 13.7008 127.139 13.2994C126.608 12.8981 125.929 12.6974 125.1 12.6974C123.966 12.6974 123.022 13.0927 122.266 13.8832C121.518 14.6616 121.144 15.6528 121.144 16.8569C121.144 17.9272 121.401 18.7724 121.916 19.3927C122.431 20.013 123.235 20.5299 124.328 20.9434L127.079 21.965C128.735 22.5731 129.97 23.5035 130.782 24.7563C131.594 25.9968 132 27.5961 132 29.5543C132 31.1597 131.694 32.5948 131.083 33.8597C130.48 35.1246 129.636 36.1219 128.55 36.8516C127.465 37.5814 126.202 37.9462 124.763 37.9462C122.873 37.9462 121.309 37.3259 120.07 36.0854C118.832 34.8448 118.048 33.0327 117.718 30.6489L120.42 29.6272C120.677 31.1354 121.164 32.2665 121.88 33.0205C122.603 33.7746 123.548 34.1516 124.714 34.1516C126.041 34.1516 127.095 33.7259 127.875 32.8746C128.663 32.011 129.057 30.9773 129.057 29.7732C129.057 28.8002 128.832 27.9853 128.381 27.3286C127.931 26.6597 127.239 26.161 126.307 25.8326L123.219 24.738C121.522 24.1299 120.275 23.1873 119.479 21.9103C118.691 20.6211 118.297 19.0096 118.297 17.0758C118.297 15.4947 118.591 14.096 119.178 12.8798C119.773 11.6636 120.581 10.7089 121.602 10.0156C122.632 9.32237 123.798 8.97574 125.1 8.97574C126.934 8.97574 128.373 9.58385 129.419 10.8001C130.472 12.0163 131.22 13.6217 131.662 15.6163Z" fill="black"/>
</svg>
