<svg width="50" height="50" viewBox="0 0 281 262" fill="none" xmlns="http://www.w3.org/2000/svg">
<path d="M207.351 0H72.8809C32.8477 0 0 29.5901 0 66.3442V194.672C0 231.114 32.5055 261.016 72.8809 261.016H207.693C247.727 261.016 280.574 231.426 280.574 194.672V66.0327C280.232 29.5901 247.727 0 207.351 0ZM231.645 216.787H178.952C178.609 216.787 178.267 216.787 178.267 216.475L128.996 151.377H128.654C108.808 172.246 89.3047 192.803 70.1436 213.049C69.1171 214.295 67.7484 215.229 66.7219 216.164C66.3798 216.475 66.0376 216.475 65.6954 216.475H51.3246C50.9824 216.475 50.6402 216.475 50.9824 216.164L121.126 142.033C121.468 141.721 121.468 141.41 121.126 141.098L51.3246 48.5901V48.2786H104.36C104.702 48.2786 104.702 48.2786 105.044 48.5901L151.579 109.951C151.579 109.951 151.579 109.951 151.921 109.951L209.746 48.5901C210.089 48.2786 210.431 48.2786 210.773 48.2786H225.144C225.828 48.2786 225.828 48.5901 225.486 48.9016L159.106 118.983C158.764 119.295 158.764 119.606 159.106 119.918L231.987 216.475C231.987 216.475 231.987 216.787 231.645 216.787Z" fill="black"/>
<path d="M98.2007 59.4917H75.2758C74.9336 59.4917 74.9336 59.8032 74.9336 60.1147L185.11 205.573C185.11 205.573 185.11 205.573 185.452 205.573H208.035C208.377 205.573 208.377 205.262 208.377 204.951L98.2007 59.4917Z" fill="black"/>
</svg>
